# xmcd
#
# Track frame offsets: 
#        150
#        17634
#        41272
#        59966
#        81135
#        96547
#        120692
#        155804
#        180005
#        230632
#        250785
#        269902
#        291567
#        310440
#        327173
#
# Disc length: 4659 seconds
#
# Revision: 0
# Processed by: cddbd v1.5.2PL0 Copyright (c) Steve Scherf et al.
# Submitted via: ExactAudioCopy v1.0b1
#
DISCID=e012310f
DTITLE=UFO - The Chrysalis Years (1973-1979) [CD5]
DYEAR=2011
DGENRE=Heavy Metal
TTITLE0=Natural Thing (Strangers In The Night)
TTITLE1=Out In The Street (Strangers In The Night)
TTITLE2=Only You Can Rock Me (Strangers In The Night)
TTITLE3=Doctor Doctor (Strangers In The Night)
TTITLE4=Mother Mary (Strangers In The Night)
TTITLE5=This Kid's (Strangers In The Night)
TTITLE6=Love To Love (Strangers In The Night)
TTITLE7=Lights Out (Strangers In The Night)
TTITLE8=Rock Bottom (Strangers In The Night)
TTITLE9=Too Hot To Handle (Strangers In The Night)
TTITLE10=I'm A Loser (Strangers In The Night)
TTITLE11=Let It Roll (Strangers In The Night)
TTITLE12=Shoot Shoot (Strangers In The Night)
TTITLE13=Doctor Doctor' (Live Single Edit) (Strangers In The Night)
TTITLE14=On With The Action' (Live Single B-Side) (Strangers In The Ni
TTITLE14=ght - Bonus Track)
EXTD=
EXTT0=
EXTT1=
EXTT2=
EXTT3=
EXTT4=
EXTT5=
EXTT6=
EXTT7=
EXTT8=
EXTT9=
EXTT10=
EXTT11=
EXTT12=
EXTT13=
EXTT14=
PLAYORDER=
